<svg height="512pt" viewBox="0 -61 512.0004 512" width="512pt" xmlns="http://www.w3.org/2000/svg"><path d="m256.125 376.785156 245.871094-66.609375v-134.25l-261.738282-143.085937zm0 0" fill="#9bf"/><path d="m160.519531 10c-83.128906 0-150.519531 67.390625-150.519531 150.519531v139.914063c0 44.460937 36.042969 80.507812 80.507812 80.507812h140.023438c44.464844 0 80.507812-36.042968 80.507812-80.507812v-139.914063c0-83.128906-67.390624-150.519531-150.519531-150.519531zm0 0" fill="#6a80ff"/><path d="m371.128906 104.382812v68.605469c0 12.417969 10.0625 22.480469 22.480469 22.480469h45.871094c12.414062 0 22.480469-10.0625 22.480469-22.480469v-18.949219" fill="#fff"/><path d="m160.519531 10c-83.128906 0-150.519531 67.390625-150.519531 150.519531v139.914063c0 44.460937 36.042969 80.507812 80.507812 80.507812h140.023438c44.464844 0 80.507812-36.042968 80.507812-80.507812v-139.914063c0-83.128906-67.390624-150.519531-150.519531-150.519531zm0 0" fill="#6a80ff"/><path d="m289.722656 83.269531h-258.40625c-13.53125 22.585938-21.316406 49.007813-21.316406 77.25v84.503907h301.039062v-84.503907c0-28.242187-7.785156-54.664062-21.316406-77.25zm0 0" fill="#fff"/><path d="m53.101562 299.578125c-2.640624 0-5.222656 1.070313-7.070312 2.933594-1.871094 1.859375-2.929688 4.4375-2.929688 7.066406 0 2.644531 1.058594 5.210937 2.929688 7.082031 1.859375 1.859375 4.429688 2.917969 7.070312 2.917969 2.628907 0 5.199219-1.058594 7.066407-2.917969 1.863281-1.871094 2.933593-4.4375 2.933593-7.082031 0-2.628906-1.070312-5.207031-2.933593-7.066406-1.859375-1.863281-4.4375-2.933594-7.066407-2.933594zm0 0"/><path d="m233.949219 299.578125c-2.640625 0-5.21875 1.070313-7.082031 2.933594-1.859376 1.859375-2.917969 4.4375-2.917969 7.066406 0 2.644531 1.058593 5.210937 2.917969 7.082031 1.871093 1.859375 4.441406 2.917969 7.082031 2.917969 2.628906 0 5.210937-1.058594 7.070312-2.917969 1.859375-1.871094 2.929688-4.4375 2.929688-7.082031 0-2.628906-1.070313-5.207031-2.929688-7.066406-1.859375-1.863281-4.441406-2.933594-7.070312-2.933594zm0 0"/><path d="m103.082031 289.101562c-5.523437 0-10 4.476563-10 10v20.96875c0 5.519532 4.476563 10 10 10 5.523438 0 10-4.480468 10-10v-20.96875c0-5.523437-4.476562-10-10-10zm0 0"/><path d="m143.519531 289.101562c-5.523437 0-10 4.476563-10 10v20.96875c0 5.519532 4.476563 10 10 10 5.523438 0 10-4.480468 10-10v-20.96875c0-5.523437-4.476562-10-10-10zm0 0"/><path d="m183.957031 289.101562c-5.523437 0-10 4.476563-10 10v20.96875c0 5.519532 4.476563 10 10 10 5.523438 0 10-4.480468 10-10v-20.96875c0-5.523437-4.476562-10-10-10zm0 0"/><path d="m499.382812 300.523438-46.605468 12.625c-5.328125 1.445312-8.480469 6.9375-7.035156 12.265624 1.207031 4.457032 5.242187 7.390626 9.644531 7.390626.867187 0 1.746093-.113282 2.621093-.351563l46.605469-12.625c5.332031-1.445313 8.480469-6.9375 7.035157-12.269531-1.441407-5.328125-6.9375-8.484375-12.265626-7.035156zm0 0"/><path d="m376.449219 333.828125-72.65625 19.683594c10.84375-14.925781 17.246093-33.265625 17.246093-53.082031v-139.910157c0-.714843-.015624-1.425781-.027343-2.140625.03125-.507812.03125-1.019531-.019531-1.53125-.636719-28.328125-8.660157-54.867187-22.203126-77.773437-.007812-.015625-.015624-.03125-.019531-.046875-.074219-.160156-.148437-.316406-.230469-.472656-.070312-.128907-.148437-.253907-.226562-.382813-.089844-.152344-.175781-.308594-.277344-.457031-.082031-.121094-.171875-.238282-.261718-.355469-.519532-.855469-1.054688-1.703125-1.59375-2.550781l64.945312 35.503906v62.675781c0 17.910157 14.574219 32.480469 32.484375 32.480469h45.867187c17.910157 0 32.484376-14.570312 32.484376-32.480469v-2.085937l25.238281 13.796875c1.523437.835937 3.167969 1.230469 4.789062 1.230469 3.535157 0 6.964844-1.882813 8.78125-5.207032 2.648438-4.84375.867188-10.921875-3.976562-13.570312l-40.03125-21.882813c-.023438-.015625-.046875-.027343-.070313-.039062l-90.765625-49.621094c-.023437-.011719-.042969-.023437-.066406-.035156l-130.808594-71.507813c-.128906-.074218-.265625-.128906-.402343-.195312-24.476563-15.125-53.300782-23.871094-84.132813-23.871094-58.089844 0-109.070313 31.015625-137.253906 77.359375-.394531.535156-.734375 1.109375-1.015625 1.714844-14.125 23.894531-22.246094 51.738281-22.246094 81.445312v139.914063c0 49.90625 40.601562 90.507812 90.507812 90.507812h140.023438c9.835938 0 19.308594-1.582031 28.183594-4.5.007812 0 .015625 0 .023437-.003906l122.9375-33.304688c5.332031-1.445312 8.480469-6.9375 7.039063-12.269531-1.445313-5.328125-6.9375-8.480469-12.265625-7.035156zm-222.929688-98.804687v-1.40625l133.746094-133.746094c7.914063 16.472656 12.707031 34.71875 13.613281 53.960937l-81.191406 81.191407zm-133.519531-12.792969c.335938-.257813.664062-.53125.972656-.839844l112.546875-112.550781v126.183594h-113.519531zm133.519531-128.960938h112.058594l-112.058594 112.0625zm147.519531 88.6875v53.066407h-53.066406zm150.921876-8.96875c0 6.882813-5.597657 12.480469-12.480469 12.480469h-45.871094c-6.882813 0-12.480469-5.597656-12.480469-12.480469v-51.742187l70.832032 38.722656zm-291.441407-152.988281c44.542969 0 84.308594 20.835938 110.070313 53.269531h-125.636719c-.003906 0-.007813 0-.011719 0h-94.492187c25.761719-32.433593 65.527343-53.269531 110.070312-53.269531zm-123.351562 73.269531h83.636719l-100.804688 100.808594v-33.558594c0-24.34375 6.226562-47.261719 17.167969-67.25zm53.339843 277.671875c-38.878906 0-70.507812-31.632812-70.507812-70.511718v-45.40625h281.039062v45.40625c0 38.878906-31.628906 70.511718-70.507812 70.511718zm0 0"/><path d="m501.996094 235.023438h-130.867188c-5.523437 0-10 4.480468-10 10 0 5.523437 4.476563 10 10 10h130.867188c5.523437 0 10-4.476563 10-10 0-5.519532-4.476563-10-10-10zm0 0"/><path d="m420.289062 322.308594c-2.628906 0-5.210937 1.070312-7.070312 2.929687-1.859375 1.863281-2.929688 4.441407-2.929688 7.070313 0 2.632812 1.070313 5.210937 2.929688 7.070312s4.441406 2.929688 7.070312 2.929688c2.628907 0 5.210938-1.070313 7.070313-2.929688s2.929687-4.4375 2.929687-7.070312c0-2.628906-1.070312-5.207032-2.929687-7.070313-1.859375-1.855469-4.441406-2.929687-7.070313-2.929687zm0 0"/></svg>