<svg height="512" viewBox="0 0 64 64" width="512" xmlns="http://www.w3.org/2000/svg"><path d="m49 14h-7v-3a1 1 0 0 0 -1-1h-5.62l-.241-1.325.81-.27a3 3 0 0 0 2.051-2.846v-.159a3.019 3.019 0 0 0 -2.217-2.9 14.467 14.467 0 0 0 -7.565 0 3.019 3.019 0 0 0 -2.218 2.9v.156a3 3 0 0 0 2.051 2.844l.81.27-.241 1.33h-5.62a1 1 0 0 0 -1 1v3h-7a3 3 0 0 0 -3 3v42a3 3 0 0 0 3 3h34a3 3 0 0 0 3-3v-42a3 3 0 0 0 -3-3zm-9-2v6h-3.166l-1.091-6zm-5.2 6h-5.6l1.091-6h3.422zm-4.484-10.949-1.632-.544a1 1 0 0 1 -.684-.948v-.159a1 1 0 0 1 .75-.969 12.39 12.39 0 0 1 6.5 0 1 1 0 0 1 .75.969v.156a1 1 0 0 1 -.684.948l-1.632.544a1 1 0 0 0 -.667 1.128l.331 1.824h-2.7l.331-1.821a1 1 0 0 0 -.663-1.128zm-6.316 4.949h4.257l-1.091 6h-3.166zm-1 8h18a1 1 0 0 0 1-1v-3h4v38l-1.2-1.6a1 1 0 0 0 -1.6 0l-2.2 2.933-2.2-2.933a1 1 0 0 0 -1.6 0l-2.2 2.933-2.2-2.933a1 1 0 0 0 -1.6 0l-2.2 2.933-2.2-2.933a1.036 1.036 0 0 0 -1.6 0l-2.2 2.934-2.195-2.934a1.037 1.037 0 0 0 -1.6 0l-1.205 1.6v-38h4v3a1 1 0 0 0 1 1zm27 39a1 1 0 0 1 -1 1h-34a1 1 0 0 1 -1-1v-42a1 1 0 0 1 1-1h1v41a1 1 0 0 0 .684.949 1.014 1.014 0 0 0 .316.051 1 1 0 0 0 .8-.4l2.2-2.936 2.211 2.936a1 1 0 0 0 1.6 0l2.2-2.933 2.2 2.933a1.036 1.036 0 0 0 1.6 0l2.2-2.933 2.2 2.933a1 1 0 0 0 1.6 0l2.2-2.933 2.2 2.933a1.036 1.036 0 0 0 1.6 0l2.189-2.933 2.2 2.933a1 1 0 0 0 1.8-.6v-41h1a1 1 0 0 1 1 1z"/><path d="m33 32h-2a1 1 0 0 1 -1-1h-2a3 3 0 0 0 3 3v2h2v-2a3 3 0 0 0 0-6h-2a1 1 0 0 1 0-2h2a1 1 0 0 1 1 1h2a3 3 0 0 0 -3-3v-2h-2v2a3 3 0 0 0 0 6h2a1 1 0 0 1 0 2z"/><path d="m22 39h14v2h-14z"/><path d="m38 39h4v2h-4z"/><path d="m22 43h14v2h-14z"/><path d="m38 43h4v2h-4z"/><path d="m22 47h14v2h-14z"/><path d="m38 47h4v2h-4z"/></svg>