<svg height="511pt" viewBox="0 -40 511.99956 511" width="511pt" xmlns="http://www.w3.org/2000/svg"><path d="m374.902344 36.695312-51.65625 18.800782 16.234375 44.609375c2.917969 8.019531-1.214844 16.886719-9.234375 19.804687l-65.148438 23.710938c-8.019531 2.917968-16.882812-1.214844-19.804687-9.234375l-16.234375-44.609375-51.65625 18.800781c-3.660156 1.332031-5.550782 5.394531-4.222656 9.050781l71.886718 197.5c1.332032 3.65625 5.390625 5.550782 9.046875 4.21875l197.5-71.882812c3.660157-1.332032 5.554688-5.390625 4.222657-9.050782l-71.882813-197.5c-1.332031-3.65625-5.390625-5.550781-9.050781-4.21875zm-7.898438 154.347657c-1.648437 4.410156-5.097656 7.625-9.199218 9.117187-3.332032 1.214844-7.097657 1.292969-10.683594-.046875l-9.40625-3.511719 15.6875 43.09375c2.917968 8.019532-1.21875 16.886719-9.238282 19.808594-8.015624 2.917969-16.882812-1.21875-19.804687-9.238281l-15.824219-43.476563-5.257812 9.28125c-4.207032 7.425782-13.632813 10.039063-21.058594 5.832032-7.425781-4.207032-10.035156-13.636719-5.832031-21.0625l21.613281-38.15625c3.742188-6.605469 11.734375-9.515625 18.847656-6.859375l41.082032 15.335937c7.996093 2.988282 12.058593 11.886719 9.074218 19.882813zm0 0"/><path d="m258.097656 79.214844 36.109375-13.140625 10.949219 30.085937-36.109375 13.144532zm0 0"/><path d="m491.257812 265.925781-231.804687 84.367188c-9.898437-12.699219-25.433594-19.941407-41.523437-19.363281l-116.566407-320.257813c-2.917969-8.019531-11.785156-12.15625-19.804687-9.234375l-71.386719 25.980469c-8.019531 2.917969-12.15625 11.785156-9.234375 19.804687 2.917969 8.019532 11.785156 12.15625 19.804688 9.234375l56.867187-20.695312 111.28125 305.738281c-16.738281 13.050781-24.011719 35.886719-16.371094 56.878906 9.484375 26.058594 38.398438 39.539063 64.453125 30.054688 20.992188-7.640625 33.8125-27.890625 33.050782-49.097656l231.804687-84.371094c8.019531-2.917969 12.152344-11.785156 9.234375-19.804688-2.917969-8.019531-11.785156-12.15625-19.804688-9.234375zm0 0"/></svg>