<svg height="487pt" viewBox="-2 0 487 487.128" width="487pt" xmlns="http://www.w3.org/2000/svg"><path d="m448.863281 153.527344-27.121093 176c-1.1875 7.828125-7.921876 13.609375-15.839844 13.601562h-306.238282l24-208h309.359376c4.660156.007813 9.085937 2.042969 12.128906 5.578125 3.039062 3.53125 4.394531 8.210938 3.710937 12.820313zm0 0" fill="#c6c5ca"/><path d="m395.664062 399.128906c22.089844 0 40 17.90625 40 40 0 22.089844-17.910156 40-40 40-22.089843 0-40-17.910156-40-40 0-22.09375 17.910157-40 40-40zm16 40c0-8.835937-7.164062-16-16-16-8.835937 0-16 7.164063-16 16 0 8.835938 7.164063 16 16 16 8.824219-.027344 15.972657-7.175781 16-16zm0 0" fill="#d9ccbc"/><path d="m411.664062 439.128906c0 8.835938-7.164062 16-16 16-8.835937 0-16-7.164062-16-16 0-8.835937 7.164063-16 16-16 8.835938 0 16 7.164063 16 16zm0 0" fill="#d9ccbc"/><path d="m259.984375 159.128906h-.320313c-44.183593-.089844-80.070312 35.65625-80.160156 79.839844s35.65625 80.070312 79.839844 80.160156h.320312c44.183594.085938 80.070313-35.65625 80.160157-79.839844.089843-44.183593-35.65625-80.074218-79.839844-80.160156zm0 0" fill="#ffda44"/><path d="m91.664062 399.128906c22.089844 0 40 17.90625 40 40 0 22.089844-17.910156 40-40 40-22.089843 0-40-17.910156-40-40 0-22.09375 17.910157-40 40-40zm16 40c0-8.835937-7.164062-16-16-16-8.835937 0-16 7.164063-16 16 0 8.835938 7.164063 16 16 16 8.824219-.027344 15.972657-7.175781 16-16zm0 0" fill="#d9ccbc"/><path d="m107.664062 439.128906c0 8.835938-7.164062 16-16 16-8.835937 0-16-7.164062-16-16 0-8.835937 7.164063-16 16-16 8.835938 0 16 7.164063 16 16zm0 0" fill="#d9ccbc"/><path d="m60.464844 367.128906 31.199218-318.328125c.320313-3.273437-1.394531-6.40625-4.320312-7.90625l-80-40.894531-7.28125 14.257812 75.144531 38.398438-31.503906 321.671875c-.226563 2.25.511719 4.488281 2.027344 6.167969 1.515625 1.675781 3.671875 2.632812 5.933593 2.632812h432v-16zm0 0"/><path d="m91.664062 391.128906c-26.507812 0-48 21.488282-48 48 0 26.507813 21.492188 48 48 48 26.507813 0 48-21.492187 48-48-.027343-26.5-21.5-47.972656-48-48zm0 80c-17.671874 0-32-14.328125-32-32 0-17.675781 14.328126-32 32-32 17.671876 0 32 14.324219 32 32 0 17.671875-14.328124 32-32 32zm0 0"/><path d="m91.664062 415.128906c-13.253906 0-24 10.746094-24 24s10.746094 24 24 24c13.253907 0 24-10.746094 24-24s-10.746093-24-24-24zm0 32c-4.417968 0-8-3.582031-8-8 0-4.417968 3.582032-8 8-8 4.417969 0 8 3.582032 8 8 0 4.417969-3.582031 8-8 8zm0 0"/><path d="m395.664062 391.128906c-26.507812 0-48 21.488282-48 48 0 26.507813 21.492188 48 48 48 26.507813 0 48-21.492187 48-48-.027343-26.5-21.5-47.972656-48-48zm0 80c-17.671874 0-32-14.328125-32-32 0-17.675781 14.328126-32 32-32 17.671876 0 32 14.324219 32 32 0 17.671875-14.328124 32-32 32zm0 0"/><path d="m395.664062 415.128906c-13.253906 0-24 10.746094-24 24s10.746094 24 24 24c13.253907 0 24-10.746094 24-24s-10.746093-24-24-24zm0 32c-4.417968 0-8-3.582031-8-8 0-4.417968 3.582032-8 8-8 4.417969 0 8 3.582032 8 8 0 4.417969-3.582031 8-8 8zm0 0"/><path d="m99.664062 351.128906h306.273438c11.863281.050782 21.964844-8.617187 23.71875-20.351562l27.078125-176c1.066406-6.921875-.945313-13.960938-5.503906-19.277344-4.558594-5.3125-11.210938-8.371094-18.214844-8.371094h-309.351563c-4.0625 0-7.480468 3.050782-7.945312 7.085938l-24 208c-.257812 2.265625.460938 4.535156 1.976562 6.238281 1.519532 1.699219 3.6875 2.671875 5.96875 2.675781zm31.136719-208h302.214844c2.332031 0 4.546875 1.019532 6.066406 2.789063s2.191407 4.113281 1.839844 6.417969l-27.082031 176c-.578125 3.914062-3.945313 6.808593-7.902344 6.792968h-297.296875zm0 0"/><path d="m259.664062 199.128906c8.835938 0 16 7.164063 16 16h16c-.054687-14.546875-9.914062-27.226562-24-30.863281v-9.136719h-16v9.136719c-15.585937 4.011719-25.753906 18.992187-23.71875 34.957031 2.03125 15.964844 15.625 27.925782 31.71875 27.90625 8.835938 0 16 7.164063 16 16 0 8.835938-7.164062 16-16 16-8.835937 0-16-7.164062-16-16h-16c.054688 14.546875 9.914063 27.226563 24 30.863282v9.136718h16v-9.136718c15.585938-4.011719 25.75-18.996094 23.71875-34.960938s-15.625-27.921875-31.71875-27.902344c-8.835937 0-16-7.164062-16-16 0-8.835937 7.164063-16 16-16zm0 0"/><path d="m259.664062 151.128906c-48.601562 0-88 39.398438-88 88 0 48.601563 39.398438 88 88 88 48.601563 0 88-39.398437 88-88-.058593-48.578125-39.421874-87.945312-88-88zm0 160c-39.765624 0-72-32.238281-72-72 0-39.765625 32.234376-72 72-72 39.765626 0 72 32.234375 72 72-.042968 39.746094-32.253906 71.953125-72 72zm0 0"/><path d="m427.664062 95.128906h16v16h-16zm0 0"/><path d="m331.664062 95.128906h88v16h-88zm0 0"/><path d="m395.664062 63.128906h16v16h-16zm0 0"/><path d="m299.664062 63.128906h88v16h-88zm0 0"/><path d="m427.664062 31.128906h16v16h-16zm0 0"/><path d="m331.664062 31.128906h88v16h-88zm0 0"/><path d="m267.664062 463.128906h16v16h-16zm0 0"/><path d="m171.664062 463.128906h88v16h-88zm0 0"/><path d="m235.664062 431.128906h16v16h-16zm0 0"/><path d="m227.664062 447.128906v-16h-88v16zm0 0"/><path d="m267.664062 399.128906h16v16h-16zm0 0"/><path d="m171.664062 399.128906h88v16h-88zm0 0"/></svg>